<svg height="512" viewBox="0 0 74 74" width="512" xmlns="http://www.w3.org/2000/svg"><g id="line_color" data-name="line color"><g fill="#323c6b"><path d="m21.414 3.609a.5.5 0 0 1 -.5-.5v-1.53a.5.5 0 0 1 1 0v1.53a.5.5 0 0 1 -.5.5z"/><path d="m14.49 5.081a.5.5 0 0 1 -.457-.3l-.622-1.4a.5.5 0 1 1 .913-.406l.622 1.4a.5.5 0 0 1 -.456.7z"/><path d="m8.763 9.241a.5.5 0 0 1 -.334-.128l-1.137-1.024a.5.5 0 0 1 .669-.743l1.139 1.024a.5.5 0 0 1 -.334.872z"/><path d="m5.224 15.371a.5.5 0 0 1 -.154-.024l-1.455-.473a.5.5 0 0 1 .309-.951l1.455.473a.5.5 0 0 1 -.154.976z"/><path d="m2.962 22.571a.5.5 0 0 1 -.052-1l1.521-.16a.5.5 0 0 1 .1.994l-1.521.16z"/><path d="m5.347 29.908a.5.5 0 0 1 -.25-.933l1.324-.765a.5.5 0 0 1 .5.866l-1.321.765a.5.5 0 0 1 -.253.067z"/><path d="m34.064 9.241a.5.5 0 0 1 -.334-.872l1.137-1.023a.5.5 0 1 1 .669.743l-1.136 1.024a.5.5 0 0 1 -.336.128z"/><path d="m28.337 5.081a.5.5 0 0 1 -.456-.7l.622-1.4a.5.5 0 1 1 .913.406l-.622 1.4a.5.5 0 0 1 -.457.294z"/></g><path d="m35.578 19.657a14.179 14.179 0 1 0 -23.6 11.189c6.381 4.01 15.143-4.384 23.6-11.189z" fill="#fcd462"/><path d="m35.58 19.66c-.64.52-1.28 1.04-1.93 1.57a14.179 14.179 0 0 0 -23.79-9.2 14.184 14.184 0 0 1 25.72 7.63z" fill="#f7be56"/><path d="m15.613 32.382a7.172 7.172 0 0 1 -3.9-1.112 14.675 14.675 0 1 1 24.364-11.633.5.5 0 0 1 -.186.41c-.959.771-1.922 1.564-2.885 2.356-5.985 4.923-12.131 9.979-17.393 9.979zm5.8-25.8a13.676 13.676 0 0 0 -9.1 23.89c5.281 3.312 12.793-2.868 20.058-8.843.9-.74 1.8-1.48 2.7-2.2a13.622 13.622 0 0 0 -13.661-12.846z" fill="#323c6b"/><path d="m71.625 42.978a11 11 0 0 1 -11.012 11.012 10.857 10.857 0 0 1 -6.849-2.46 9.242 9.242 0 0 1 -16.5 2.668 10.7 10.7 0 0 1 -2.838 1.173 9.459 9.459 0 0 1 -2.554.341 10.787 10.787 0 0 1 -8.817-4.6 12.042 12.042 0 1 1 -7.379-21.55c.454 0 .889.095 1.324.132a12.805 12.805 0 0 1 12.527-10.177 12.646 12.646 0 0 1 4.579.889 14.848 14.848 0 0 1 28.286 6.338 15.1 15.1 0 0 1 -1.022 5.317 10.985 10.985 0 0 1 10.255 10.917z" fill="#89c5cd"/><path d="m15.67 29.56a12.9 12.9 0 0 0 -1.09 3.13c-.44-.03-.87-.13-1.33-.13a11.972 11.972 0 0 0 -8.04 3.09 12.04 12.04 0 0 1 10.46-6.09z" fill="#6eaaad"/><path d="m29.53 19.52a12.462 12.462 0 0 1 4.16.74 14.718 14.718 0 0 0 -2.01 3.14 12.649 12.649 0 0 0 -13.2 2.46 12.81 12.81 0 0 1 11.05-6.34z" fill="#6eaaad"/><path d="m71.62 42.98a10.977 10.977 0 0 1 -3.78 8.31 10.973 10.973 0 0 0 -8.89-16.23 15.2 15.2 0 0 0 1.02-5.32 14.877 14.877 0 0 0 -14.89-14.87 14.689 14.689 0 0 0 -10.16 4.07 14.831 14.831 0 0 1 27.47 7.8 15.159 15.159 0 0 1 -1.02 5.32 10.983 10.983 0 0 1 10.25 10.92z" fill="#6eaaad"/><path d="m44.891 58.709a9.8 9.8 0 0 1 -7.767-3.858 10.939 10.939 0 0 1 -2.577 1.005 9.956 9.956 0 0 1 -2.673.355 11.314 11.314 0 0 1 -8.92-4.4 12.387 12.387 0 0 1 -7.276 2.372 12.562 12.562 0 0 1 0-25.124 6.779 6.779 0 0 1 .907.079h.029a13.352 13.352 0 0 1 12.913-10.13 13.041 13.041 0 0 1 4.33.764 15.326 15.326 0 0 1 28.2 11.844 11.483 11.483 0 0 1 10.068 11.362 11.525 11.525 0 0 1 -11.512 11.512 11.242 11.242 0 0 1 -6.6-2.139 9.687 9.687 0 0 1 -9.122 6.358zm-7.626-5.009a.5.5 0 0 1 .411.214 8.8 8.8 0 0 0 7.214 3.8 8.708 8.708 0 0 0 8.394-6.32.5.5 0 0 1 .794-.248 10.31 10.31 0 0 0 6.535 2.349 10.523 10.523 0 0 0 10.512-10.517 10.485 10.485 0 0 0 -9.79-10.418.5.5 0 0 1 -.434-.675 14.656 14.656 0 0 0 .99-5.141 14.348 14.348 0 0 0 -27.333-6.124.5.5 0 0 1 -.632.252 12.282 12.282 0 0 0 -16.435 8.928.493.493 0 0 1 -.532.4c-.169-.015-.338-.037-.508-.06a5.771 5.771 0 0 0 -.773-.07 11.562 11.562 0 0 0 0 23.124 11.441 11.441 0 0 0 7.072-2.468.5.5 0 0 1 .716.106 10.32 10.32 0 0 0 8.409 4.386 9.019 9.019 0 0 0 2.42-.322 10.187 10.187 0 0 0 2.719-1.123.5.5 0 0 1 .251-.073z" fill="#323c6b"/><path d="m19.25 56.676a.5.5 0 0 1 -.161-.973c.309-.1.614-.219.915-.346a.5.5 0 1 1 .39.921c-.323.137-.651.259-.982.372a.489.489 0 0 1 -.162.026z" fill="#323c6b"/><path d="m15.677 57.187a15.459 15.459 0 0 1 -7.8-2.115.5.5 0 1 1 .5-.863 14.43 14.43 0 0 0 8.409 1.919.508.508 0 0 1 .539.458.5.5 0 0 1 -.458.539c-.39.033-.787.062-1.19.062z" fill="#323c6b"/><path d="m49.514 9.593h-.053c-.249-.026-.5-.04-.746-.049a.5.5 0 0 1 -.481-.518.489.489 0 0 1 .518-.481c.271.01.542.025.813.054a.5.5 0 0 1 -.052 1z" fill="#323c6b"/><path d="m60.259 14.761a.5.5 0 0 1 -.357-.15 17.383 17.383 0 0 0 -8.109-4.681.5.5 0 0 1 .247-.969 18.384 18.384 0 0 1 8.576 4.949.5.5 0 0 1 -.357.85z" fill="#323c6b"/><path d="m60.613 50.64a7.366 7.366 0 0 1 -.81-.045.65.65 0 0 1 .144-1.292 6 6 0 0 0 .667.038 6.332 6.332 0 0 0 5.908-4.018.65.65 0 1 1 1.208.48 7.626 7.626 0 0 1 -7.117 4.837z" fill="#fff"/><path d="m57.45 50.044a.648.648 0 0 1 -.431-.044l-.764-.356a.65.65 0 0 1 .557-1.175l.764.356a.65.65 0 0 1 -.126 1.22z" fill="#fff"/></g></svg>