<svg id="Capa_1" enable-background="new 0 0 512 512" height="512" viewBox="0 0 512 512" width="512" xmlns="http://www.w3.org/2000/svg"><g><g><g><path d="m456.249 104.589c-3.715-19.06-20.495-33.449-40.643-33.449-.029 0-.058.002-.087.002-3.537-12.813-15.269-22.226-29.207-22.226 0-22.874-18.543-41.417-41.417-41.417-21.45 0-39.09 16.306-41.204 37.198-2.68-.545-5.453-.832-8.294-.832-19.046 0-35.079 12.861-39.915 30.369-35.643 1.337-64.132 30.637-64.132 66.607 0 36.821 29.849 66.671 66.671 66.671h194.961c28.453 0 51.518-23.066 51.518-51.518 0-27.354-21.322-49.718-48.251-51.405z" fill="#d3effd"/></g><g><path d="m371.703 196.22c0-25.604-11.232-49.346-30.208-65.482-.266-34.41-28.341-62.32-62.813-62.32-4.051 0-8.082.394-12.034 1.166-2.283-1.801-4.639-3.499-7.041-5.124-1.769 3.036-3.17 6.312-4.126 9.775-35.643 1.337-64.132 30.637-64.132 66.607 0 36.821 29.849 66.671 66.671 66.671h112.918c.487-3.7.765-7.464.765-11.293z" fill="#b2e5fb"/></g><g><path d="m313.225 143.179c1.295-3.745 2.008-7.761 2.008-11.946 0-20.186-16.364-36.55-36.551-36.55-6.611 0-12.805 1.764-18.156 4.833-16.956-18.084-41.058-29.385-67.803-29.385-42.162 0-77.761 28.079-89.131 66.556-20.56 1.807-38.132 14.01-47.418 31.332-1.501-.154-3.024-.235-4.566-.235-24.36 0-44.108 19.748-44.108 44.108s19.748 44.108 44.108 44.108h234.05c33.016 0 59.78-26.765 59.78-59.78 0-23.07-13.076-43.074-32.213-53.041z" fill="#e6f7fe"/></g><g><path d="m313.225 143.179c1.295-3.745 2.008-7.761 2.008-11.946 0-20.186-16.364-36.55-36.551-36.55-.906 0-1.803.04-2.693.105 3.04 11.132 4.672 22.846 4.672 34.942 0 59.254-38.947 109.409-92.636 126.27h97.633c33.016 0 59.78-26.765 59.78-59.78 0-23.07-13.076-43.074-32.213-53.041z" fill="#d3effd"/></g></g><g><circle cx="427.728" cy="256" fill="#e6f7fe" r="16.163"/></g><g><circle cx="272.163" cy="335.803" fill="#e6f7fe" r="16.163"/></g><g><circle cx="488.337" cy="441.87" fill="#e6f7fe" r="16.163"/></g><g><circle cx="70.13" cy="304.488" fill="#e6f7fe" r="16.163"/></g><g><circle cx="370.148" cy="344.894" fill="#b2e5fb" r="24.244"/></g><g><circle cx="231.756" cy="480.256" fill="#e6f7fe" r="24.244"/></g><g><circle cx="206.502" cy="382.27" fill="#b2e5fb" r="16.163"/></g><g><circle cx="70.13" cy="480.256" fill="#b2e5fb" r="24.244"/></g><g><circle cx="190.339" cy="299.437" r="10.102"/><circle cx="301.457" cy="400.453" r="10.102"/><circle cx="339.844" cy="291.356" r="10.102"/><circle cx="467.124" cy="329.742" r="10.102"/><circle cx="148.923" cy="461.063" r="10.102"/><circle cx="17.602" cy="347.925" r="10.102"/><path d="m51.61 263.5h50.22c4.142 0 7.5-3.357 7.5-7.5s-3.358-7.5-7.5-7.5h-50.22c-20.187 0-36.61-16.423-36.61-36.61s16.423-36.609 36.61-36.609c1.267 0 2.534.066 3.769.197 3.032.322 5.959-1.226 7.401-3.913 8.378-15.619 23.879-25.863 41.464-27.402 3.071-.27 5.665-2.39 6.539-5.347 5.115-17.31 15.897-32.887 30.36-43.86 14.937-11.335 32.772-17.326 51.577-17.326 23.864 0 46.003 9.596 62.339 27.02 2.379 2.537 6.189 3.106 9.204 1.375 4.385-2.515 9.37-3.845 14.417-3.845 16.019 0 29.051 13.032 29.051 29.051 0 3.241-.537 6.436-1.597 9.493-1.219 3.514.322 7.39 3.621 9.107 17.386 9.057 28.186 26.832 28.186 46.389 0 28.827-23.453 52.28-52.28 52.28h-148.831c-4.142 0-7.5 3.357-7.5 7.5s3.358 7.5 7.5 7.5h148.83c30.577 0 56.437-20.51 64.591-48.49h42.48c4.143 0 7.5-3.357 7.5-7.5s-3.357-7.5-7.5-7.5h-39.903c.07-1.255.113-2.518.113-3.79 0-23.136-11.739-44.332-31.005-56.653.528-2.738.795-5.526.795-8.336 0-24.29-19.761-44.051-44.051-44.051-5.698 0-11.343 1.115-16.598 3.257-3.192-3.043-6.575-5.855-10.114-8.435 1.258-.127 2.52-.228 3.792-.276 3.268-.122 6.081-2.348 6.951-5.5 4.038-14.635 17.481-24.855 32.69-24.855 2.303 0 4.594.227 6.809.673 2.079.416 4.231-.062 5.935-1.317 1.703-1.257 2.796-3.176 3.009-5.281 1.751-17.358 16.255-30.446 33.736-30.446 3.162 0 6.298.434 9.32 1.287 3.986 1.128 8.13-1.19 9.257-5.177s-1.19-8.131-5.177-9.257c-4.351-1.23-8.858-1.853-13.4-1.853-22.619 0-41.783 15.203-47.312 36.418-.725-.032-1.45-.048-2.177-.048-20.113 0-38.086 12.401-45.425 30.743-5.849.63-11.567 1.956-17.086 3.945-12.57-5.489-26.249-8.428-40.169-8.428-22.106 0-43.077 7.046-60.645 20.375-15.669 11.89-27.663 28.384-34.152 46.842-18.969 3.098-35.622 14.133-45.918 30.436-28.669-.252-52.006 23.019-52.006 51.607 0 28.458 23.152 51.61 51.61 51.61z"/><path d="m512 155.99c0-29.22-21.461-53.827-49.786-58.283-5.831-18.38-22.116-31.706-41.338-33.784-5.023-11.345-15.392-19.531-27.537-21.841-.668-4.794-2.044-9.435-4.116-13.861-1.757-3.752-6.22-5.368-9.973-3.613-3.752 1.757-5.369 6.222-3.613 9.973 2.105 4.497 3.173 9.321 3.173 14.34 0 4.143 3.357 7.5 7.5 7.5 10.225 0 19.259 6.872 21.97 16.712.896 3.254 3.855 5.508 7.23 5.508h.101c16.198 0 30.189 11.515 33.268 27.379.65 3.354 3.485 5.844 6.896 6.057 23.117 1.44 41.225 20.73 41.225 43.913 0 24.272-19.747 44.02-44.02 44.02h-25.25c-4.143 0-7.5 3.357-7.5 7.5s3.357 7.5 7.5 7.5h25.25c32.544 0 59.02-26.476 59.02-59.02z"/><path d="m427.728 232.337c-13.047 0-23.662 10.615-23.662 23.663s10.615 23.663 23.662 23.663c13.048 0 23.663-10.615 23.663-23.663s-10.616-23.663-23.663-23.663zm0 32.326c-4.776 0-8.662-3.887-8.662-8.663s3.886-8.663 8.662-8.663 8.663 3.887 8.663 8.663-3.887 8.663-8.663 8.663z"/><path d="m230.165 382.271c0-13.048-10.615-23.663-23.663-23.663s-23.663 10.615-23.663 23.663c0 13.047 10.615 23.662 23.663 23.662s23.663-10.616 23.663-23.662zm-32.326 0c0-4.776 3.886-8.663 8.663-8.663s8.663 3.887 8.663 8.663-3.886 8.662-8.663 8.662-8.663-3.886-8.663-8.662z"/><path d="m272.163 312.141c-13.048 0-23.663 10.615-23.663 23.662 0 13.048 10.615 23.663 23.663 23.663 13.047 0 23.662-10.615 23.662-23.663 0-13.047-10.615-23.662-23.662-23.662zm0 32.325c-4.776 0-8.663-3.887-8.663-8.663s3.887-8.662 8.663-8.662 8.662 3.886 8.662 8.662-3.886 8.663-8.662 8.663z"/><path d="m488.337 418.207c-13.047 0-23.662 10.615-23.662 23.663 0 13.047 10.615 23.662 23.662 23.662 13.048 0 23.663-10.615 23.663-23.662 0-13.048-10.615-23.663-23.663-23.663zm0 32.325c-4.776 0-8.662-3.886-8.662-8.662s3.886-8.663 8.662-8.663 8.663 3.887 8.663 8.663-3.887 8.662-8.663 8.662z"/><path d="m46.467 304.488c0 13.047 10.615 23.662 23.663 23.662s23.663-10.615 23.663-23.662c0-13.048-10.615-23.663-23.663-23.663s-23.663 10.615-23.663 23.663zm32.325 0c0 4.776-3.886 8.662-8.663 8.662s-8.663-3.886-8.663-8.662 3.886-8.663 8.663-8.663 8.663 3.887 8.663 8.663z"/><path d="m370.148 376.639c17.504 0 31.744-14.24 31.744-31.744s-14.24-31.744-31.744-31.744-31.744 14.24-31.744 31.744 14.241 31.744 31.744 31.744zm0-48.489c9.232 0 16.744 7.512 16.744 16.744s-7.512 16.744-16.744 16.744-16.744-7.512-16.744-16.744 7.512-16.744 16.744-16.744z"/><path d="m70.13 448.512c-17.503 0-31.744 14.24-31.744 31.744s14.24 31.744 31.744 31.744 31.744-14.24 31.744-31.744-14.24-31.744-31.744-31.744zm0 48.488c-9.232 0-16.744-7.512-16.744-16.744s7.511-16.744 16.744-16.744 16.744 7.512 16.744 16.744-7.511 16.744-16.744 16.744z"/><path d="m231.756 448.512c-17.503 0-31.744 14.24-31.744 31.744s14.24 31.744 31.744 31.744 31.744-14.24 31.744-31.744-14.24-31.744-31.744-31.744zm0 48.488c-9.232 0-16.744-7.512-16.744-16.744s7.511-16.744 16.744-16.744 16.744 7.512 16.744 16.744-7.511 16.744-16.744 16.744z"/><path d="m417.808 385.882c-8.895 0-17.438 3.769-23.441 10.339-2.794 3.058-2.58 7.802.479 10.596 3.058 2.794 7.801 2.579 10.596-.479 3.168-3.468 7.676-5.456 12.367-5.456 9.232 0 16.744 7.512 16.744 16.744s-7.512 16.744-16.744 16.744h-78.379c-4.143 0-7.5 3.357-7.5 7.5s3.357 7.5 7.5 7.5h78.379c17.504 0 31.744-14.24 31.744-31.744s-14.241-31.744-31.745-31.744z"/><path d="m413.947 466.695h-19.025c-4.143 0-7.5 3.357-7.5 7.5s3.357 7.5 7.5 7.5h19.025c4.143 0 7.5-3.357 7.5-7.5s-3.357-7.5-7.5-7.5z"/><path d="m362.793 466.695h-48.203c-4.143 0-7.5 3.357-7.5 7.5s3.357 7.5 7.5 7.5h48.203c4.143 0 7.5-3.357 7.5-7.5s-3.357-7.5-7.5-7.5z"/><path d="m128.901 327.293c-8.895 0-17.439 3.769-23.441 10.338-2.794 3.059-2.58 7.802.479 10.596 3.057 2.794 7.801 2.579 10.596-.479 3.167-3.467 7.675-5.455 12.367-5.455 9.233 0 16.744 7.511 16.744 16.743s-7.511 16.744-16.744 16.744h-78.38c-4.142 0-7.5 3.357-7.5 7.5s3.358 7.5 7.5 7.5h78.378c17.504 0 31.744-14.24 31.744-31.744.001-17.503-14.239-31.743-31.743-31.743z"/><path d="m125.041 408.105h-19.025c-4.142 0-7.5 3.357-7.5 7.5s3.358 7.5 7.5 7.5h19.025c4.142 0 7.5-3.357 7.5-7.5s-3.358-7.5-7.5-7.5z"/><path d="m81.386 415.605c0-4.143-3.358-7.5-7.5-7.5h-48.203c-4.142 0-7.5 3.357-7.5 7.5s3.358 7.5 7.5 7.5h48.203c4.142 0 7.5-3.357 7.5-7.5z"/></g></g></svg>